<?xml version="1.0" standalone="no"?>
<!DOCTYPE svg PUBLIC "-//W3C//DTD SVG 1.1//EN" "http://www.w3.org/Graphics/SVG/1.1/DTD/svg11.dtd">
<svg width="484" height="484" version="1.1" xmlns="http://www.w3.org/2000/svg">
  <title>30 by 30 orthogonal maze</title>
  <desc>30 by 30 orthogonal maze generated by The Maze Generator Website (https://www.mazegenerator.net/).</desc>
  <g fill="none" stroke="#000000" stroke-width="2" stroke-linecap="square">
    <line x1="2" y1="2" x2="226" y2="2" />
    <line x1="242" y1="2" x2="482" y2="2" />
    <line x1="66" y1="18" x2="98" y2="18" />
    <line x1="114" y1="18" x2="130" y2="18" />
    <line x1="178" y1="18" x2="290" y2="18" />
    <line x1="338" y1="18" x2="386" y2="18" />
    <line x1="402" y1="18" x2="434" y2="18" />
    <line x1="18" y1="34" x2="50" y2="34" />
    <line x1="66" y1="34" x2="162" y2="34" />
    <line x1="194" y1="34" x2="210" y2="34" />
    <line x1="258" y1="34" x2="306" y2="34" />
    <line x1="322" y1="34" x2="338" y2="34" />
    <line x1="386" y1="34" x2="418" y2="34" />
    <line x1="2" y1="50" x2="34" y2="50" />
    <line x1="50" y1="50" x2="66" y2="50" />
    <line x1="98" y1="50" x2="130" y2="50" />
    <line x1="146" y1="50" x2="178" y2="50" />
    <line x1="242" y1="50" x2="258" y2="50" />
    <line x1="290" y1="50" x2="322" y2="50" />
    <line x1="370" y1="50" x2="386" y2="50" />
    <line x1="402" y1="50" x2="434" y2="50" />
    <line x1="466" y1="50" x2="482" y2="50" />
    <line x1="18" y1="66" x2="34" y2="66" />
    <line x1="66" y1="66" x2="146" y2="66" />
    <line x1="162" y1="66" x2="194" y2="66" />
    <line x1="210" y1="66" x2="242" y2="66" />
    <line x1="258" y1="66" x2="290" y2="66" />
    <line x1="306" y1="66" x2="322" y2="66" />
    <line x1="338" y1="66" x2="402" y2="66" />
    <line x1="34" y1="82" x2="50" y2="82" />
    <line x1="82" y1="82" x2="130" y2="82" />
    <line x1="146" y1="82" x2="162" y2="82" />
    <line x1="178" y1="82" x2="258" y2="82" />
    <line x1="274" y1="82" x2="290" y2="82" />
    <line x1="322" y1="82" x2="338" y2="82" />
    <line x1="354" y1="82" x2="370" y2="82" />
    <line x1="386" y1="82" x2="418" y2="82" />
    <line x1="450" y1="82" x2="466" y2="82" />
    <line x1="50" y1="98" x2="66" y2="98" />
    <line x1="162" y1="98" x2="178" y2="98" />
    <line x1="194" y1="98" x2="210" y2="98" />
    <line x1="242" y1="98" x2="274" y2="98" />
    <line x1="290" y1="98" x2="322" y2="98" />
    <line x1="338" y1="98" x2="354" y2="98" />
    <line x1="370" y1="98" x2="386" y2="98" />
    <line x1="34" y1="114" x2="82" y2="114" />
    <line x1="114" y1="114" x2="130" y2="114" />
    <line x1="194" y1="114" x2="242" y2="114" />
    <line x1="258" y1="114" x2="290" y2="114" />
    <line x1="306" y1="114" x2="322" y2="114" />
    <line x1="354" y1="114" x2="370" y2="114" />
    <line x1="386" y1="114" x2="434" y2="114" />
    <line x1="450" y1="114" x2="466" y2="114" />
    <line x1="2" y1="130" x2="34" y2="130" />
    <line x1="98" y1="130" x2="114" y2="130" />
    <line x1="130" y1="130" x2="194" y2="130" />
    <line x1="226" y1="130" x2="258" y2="130" />
    <line x1="322" y1="130" x2="386" y2="130" />
    <line x1="402" y1="130" x2="450" y2="130" />
    <line x1="466" y1="130" x2="482" y2="130" />
    <line x1="2" y1="146" x2="34" y2="146" />
    <line x1="50" y1="146" x2="66" y2="146" />
    <line x1="130" y1="146" x2="146" y2="146" />
    <line x1="162" y1="146" x2="178" y2="146" />
    <line x1="226" y1="146" x2="242" y2="146" />
    <line x1="274" y1="146" x2="290" y2="146" />
    <line x1="306" y1="146" x2="354" y2="146" />
    <line x1="386" y1="146" x2="402" y2="146" />
    <line x1="66" y1="162" x2="98" y2="162" />
    <line x1="114" y1="162" x2="130" y2="162" />
    <line x1="146" y1="162" x2="162" y2="162" />
    <line x1="178" y1="162" x2="194" y2="162" />
    <line x1="242" y1="162" x2="274" y2="162" />
    <line x1="338" y1="162" x2="466" y2="162" />
    <line x1="2" y1="178" x2="18" y2="178" />
    <line x1="34" y1="178" x2="50" y2="178" />
    <line x1="82" y1="178" x2="114" y2="178" />
    <line x1="130" y1="178" x2="162" y2="178" />
    <line x1="194" y1="178" x2="210" y2="178" />
    <line x1="226" y1="178" x2="242" y2="178" />
    <line x1="274" y1="178" x2="290" y2="178" />
    <line x1="354" y1="178" x2="370" y2="178" />
    <line x1="402" y1="178" x2="450" y2="178" />
    <line x1="18" y1="194" x2="34" y2="194" />
    <line x1="50" y1="194" x2="66" y2="194" />
    <line x1="146" y1="194" x2="178" y2="194" />
    <line x1="194" y1="194" x2="274" y2="194" />
    <line x1="290" y1="194" x2="322" y2="194" />
    <line x1="338" y1="194" x2="386" y2="194" />
    <line x1="402" y1="194" x2="418" y2="194" />
    <line x1="2" y1="210" x2="18" y2="210" />
    <line x1="34" y1="210" x2="82" y2="210" />
    <line x1="178" y1="210" x2="194" y2="210" />
    <line x1="274" y1="210" x2="354" y2="210" />
    <line x1="370" y1="210" x2="402" y2="210" />
    <line x1="418" y1="210" x2="450" y2="210" />
    <line x1="18" y1="226" x2="34" y2="226" />
    <line x1="82" y1="226" x2="98" y2="226" />
    <line x1="114" y1="226" x2="146" y2="226" />
    <line x1="194" y1="226" x2="242" y2="226" />
    <line x1="274" y1="226" x2="338" y2="226" />
    <line x1="434" y1="226" x2="466" y2="226" />
    <line x1="18" y1="242" x2="50" y2="242" />
    <line x1="98" y1="242" x2="130" y2="242" />
    <line x1="226" y1="242" x2="290" y2="242" />
    <line x1="322" y1="242" x2="338" y2="242" />
    <line x1="370" y1="242" x2="434" y2="242" />
    <line x1="450" y1="242" x2="482" y2="242" />
    <line x1="50" y1="258" x2="66" y2="258" />
    <line x1="82" y1="258" x2="146" y2="258" />
    <line x1="178" y1="258" x2="210" y2="258" />
    <line x1="258" y1="258" x2="322" y2="258" />
    <line x1="338" y1="258" x2="354" y2="258" />
    <line x1="386" y1="258" x2="402" y2="258" />
    <line x1="434" y1="258" x2="466" y2="258" />
    <line x1="2" y1="274" x2="50" y2="274" />
    <line x1="66" y1="274" x2="98" y2="274" />
    <line x1="130" y1="274" x2="178" y2="274" />
    <line x1="210" y1="274" x2="258" y2="274" />
    <line x1="306" y1="274" x2="338" y2="274" />
    <line x1="354" y1="274" x2="402" y2="274" />
    <line x1="418" y1="274" x2="434" y2="274" />
    <line x1="466" y1="274" x2="482" y2="274" />
    <line x1="34" y1="290" x2="82" y2="290" />
    <line x1="98" y1="290" x2="130" y2="290" />
    <line x1="146" y1="290" x2="194" y2="290" />
    <line x1="290" y1="290" x2="306" y2="290" />
    <line x1="354" y1="290" x2="370" y2="290" />
    <line x1="402" y1="290" x2="418" y2="290" />
    <line x1="450" y1="290" x2="466" y2="290" />
    <line x1="18" y1="306" x2="50" y2="306" />
    <line x1="66" y1="306" x2="82" y2="306" />
    <line x1="162" y1="306" x2="178" y2="306" />
    <line x1="194" y1="306" x2="226" y2="306" />
    <line x1="258" y1="306" x2="274" y2="306" />
    <line x1="306" y1="306" x2="370" y2="306" />
    <line x1="386" y1="306" x2="402" y2="306" />
    <line x1="450" y1="306" x2="482" y2="306" />
    <line x1="34" y1="322" x2="66" y2="322" />
    <line x1="82" y1="322" x2="98" y2="322" />
    <line x1="114" y1="322" x2="162" y2="322" />
    <line x1="194" y1="322" x2="210" y2="322" />
    <line x1="226" y1="322" x2="242" y2="322" />
    <line x1="290" y1="322" x2="338" y2="322" />
    <line x1="370" y1="322" x2="418" y2="322" />
    <line x1="434" y1="322" x2="466" y2="322" />
    <line x1="34" y1="338" x2="50" y2="338" />
    <line x1="66" y1="338" x2="82" y2="338" />
    <line x1="98" y1="338" x2="178" y2="338" />
    <line x1="210" y1="338" x2="258" y2="338" />
    <line x1="274" y1="338" x2="322" y2="338" />
    <line x1="338" y1="338" x2="434" y2="338" />
    <line x1="450" y1="338" x2="482" y2="338" />
    <line x1="18" y1="354" x2="34" y2="354" />
    <line x1="50" y1="354" x2="66" y2="354" />
    <line x1="146" y1="354" x2="194" y2="354" />
    <line x1="242" y1="354" x2="274" y2="354" />
    <line x1="290" y1="354" x2="338" y2="354" />
    <line x1="354" y1="354" x2="386" y2="354" />
    <line x1="434" y1="354" x2="450" y2="354" />
    <line x1="2" y1="370" x2="34" y2="370" />
    <line x1="66" y1="370" x2="114" y2="370" />
    <line x1="130" y1="370" x2="146" y2="370" />
    <line x1="178" y1="370" x2="210" y2="370" />
    <line x1="290" y1="370" x2="306" y2="370" />
    <line x1="370" y1="370" x2="402" y2="370" />
    <line x1="434" y1="370" x2="466" y2="370" />
    <line x1="114" y1="386" x2="178" y2="386" />
    <line x1="210" y1="386" x2="322" y2="386" />
    <line x1="338" y1="386" x2="354" y2="386" />
    <line x1="386" y1="386" x2="402" y2="386" />
    <line x1="450" y1="386" x2="482" y2="386" />
    <line x1="18" y1="402" x2="34" y2="402" />
    <line x1="66" y1="402" x2="82" y2="402" />
    <line x1="98" y1="402" x2="130" y2="402" />
    <line x1="146" y1="402" x2="162" y2="402" />
    <line x1="194" y1="402" x2="210" y2="402" />
    <line x1="354" y1="402" x2="370" y2="402" />
    <line x1="434" y1="402" x2="466" y2="402" />
    <line x1="18" y1="418" x2="50" y2="418" />
    <line x1="82" y1="418" x2="194" y2="418" />
    <line x1="226" y1="418" x2="258" y2="418" />
    <line x1="290" y1="418" x2="354" y2="418" />
    <line x1="386" y1="418" x2="418" y2="418" />
    <line x1="34" y1="434" x2="82" y2="434" />
    <line x1="130" y1="434" x2="178" y2="434" />
    <line x1="194" y1="434" x2="210" y2="434" />
    <line x1="242" y1="434" x2="274" y2="434" />
    <line x1="306" y1="434" x2="322" y2="434" />
    <line x1="370" y1="434" x2="402" y2="434" />
    <line x1="418" y1="434" x2="466" y2="434" />
    <line x1="18" y1="450" x2="50" y2="450" />
    <line x1="82" y1="450" x2="130" y2="450" />
    <line x1="178" y1="450" x2="194" y2="450" />
    <line x1="210" y1="450" x2="226" y2="450" />
    <line x1="274" y1="450" x2="306" y2="450" />
    <line x1="322" y1="450" x2="370" y2="450" />
    <line x1="402" y1="450" x2="434" y2="450" />
    <line x1="466" y1="450" x2="482" y2="450" />
    <line x1="2" y1="466" x2="34" y2="466" />
    <line x1="98" y1="466" x2="146" y2="466" />
    <line x1="162" y1="466" x2="210" y2="466" />
    <line x1="242" y1="466" x2="290" y2="466" />
    <line x1="306" y1="466" x2="322" y2="466" />
    <line x1="354" y1="466" x2="370" y2="466" />
    <line x1="450" y1="466" x2="466" y2="466" />
    <line x1="2" y1="482" x2="242" y2="482" />
    <line x1="258" y1="482" x2="482" y2="482" />
    <line x1="2" y1="2" x2="2" y2="482" />
    <line x1="18" y1="18" x2="18" y2="34" />
    <line x1="18" y1="66" x2="18" y2="114" />
    <line x1="18" y1="162" x2="18" y2="178" />
    <line x1="18" y1="210" x2="18" y2="226" />
    <line x1="18" y1="242" x2="18" y2="258" />
    <line x1="18" y1="290" x2="18" y2="354" />
    <line x1="18" y1="386" x2="18" y2="450" />
    <line x1="34" y1="2" x2="34" y2="18" />
    <line x1="34" y1="50" x2="34" y2="66" />
    <line x1="34" y1="82" x2="34" y2="114" />
    <line x1="34" y1="146" x2="34" y2="194" />
    <line x1="34" y1="226" x2="34" y2="242" />
    <line x1="34" y1="258" x2="34" y2="274" />
    <line x1="34" y1="354" x2="34" y2="386" />
    <line x1="50" y1="18" x2="50" y2="82" />
    <line x1="50" y1="130" x2="50" y2="146" />
    <line x1="50" y1="162" x2="50" y2="178" />
    <line x1="50" y1="194" x2="50" y2="226" />
    <line x1="50" y1="274" x2="50" y2="290" />
    <line x1="50" y1="322" x2="50" y2="418" />
    <line x1="50" y1="466" x2="50" y2="482" />
    <line x1="66" y1="2" x2="66" y2="18" />
    <line x1="66" y1="34" x2="66" y2="50" />
    <line x1="66" y1="66" x2="66" y2="98" />
    <line x1="66" y1="130" x2="66" y2="194" />
    <line x1="66" y1="226" x2="66" y2="274" />
    <line x1="66" y1="306" x2="66" y2="322" />
    <line x1="66" y1="354" x2="66" y2="386" />
    <line x1="66" y1="402" x2="66" y2="482" />
    <line x1="82" y1="50" x2="82" y2="66" />
    <line x1="82" y1="98" x2="82" y2="146" />
    <line x1="82" y1="178" x2="82" y2="194" />
    <line x1="82" y1="210" x2="82" y2="258" />
    <line x1="82" y1="290" x2="82" y2="306" />
    <line x1="82" y1="322" x2="82" y2="354" />
    <line x1="82" y1="386" x2="82" y2="402" />
    <line x1="82" y1="418" x2="82" y2="434" />
    <line x1="82" y1="450" x2="82" y2="466" />
    <line x1="98" y1="34" x2="98" y2="50" />
    <line x1="98" y1="82" x2="98" y2="162" />
    <line x1="98" y1="194" x2="98" y2="226" />
    <line x1="98" y1="274" x2="98" y2="354" />
    <line x1="98" y1="370" x2="98" y2="402" />
    <line x1="98" y1="434" x2="98" y2="450" />
    <line x1="98" y1="466" x2="98" y2="482" />
    <line x1="114" y1="98" x2="114" y2="114" />
    <line x1="114" y1="130" x2="114" y2="162" />
    <line x1="114" y1="178" x2="114" y2="242" />
    <line x1="114" y1="258" x2="114" y2="274" />
    <line x1="114" y1="306" x2="114" y2="322" />
    <line x1="114" y1="354" x2="114" y2="370" />
    <line x1="114" y1="418" x2="114" y2="434" />
    <line x1="130" y1="18" x2="130" y2="34" />
    <line x1="130" y1="66" x2="130" y2="98" />
    <line x1="130" y1="114" x2="130" y2="146" />
    <line x1="130" y1="162" x2="130" y2="210" />
    <line x1="130" y1="274" x2="130" y2="306" />
    <line x1="130" y1="338" x2="130" y2="370" />
    <line x1="130" y1="386" x2="130" y2="402" />
    <line x1="130" y1="434" x2="130" y2="450" />
    <line x1="146" y1="2" x2="146" y2="18" />
    <line x1="146" y1="50" x2="146" y2="66" />
    <line x1="146" y1="82" x2="146" y2="114" />
    <line x1="146" y1="146" x2="146" y2="162" />
    <line x1="146" y1="194" x2="146" y2="258" />
    <line x1="146" y1="290" x2="146" y2="322" />
    <line x1="146" y1="354" x2="146" y2="370" />
    <line x1="146" y1="450" x2="146" y2="466" />
    <line x1="162" y1="2" x2="162" y2="34" />
    <line x1="162" y1="66" x2="162" y2="82" />
    <line x1="162" y1="114" x2="162" y2="130" />
    <line x1="162" y1="146" x2="162" y2="162" />
    <line x1="162" y1="210" x2="162" y2="274" />
    <line x1="162" y1="370" x2="162" y2="402" />
    <line x1="162" y1="434" x2="162" y2="482" />
    <line x1="178" y1="18" x2="178" y2="50" />
    <line x1="178" y1="82" x2="178" y2="114" />
    <line x1="178" y1="162" x2="178" y2="258" />
    <line x1="178" y1="306" x2="178" y2="338" />
    <line x1="178" y1="402" x2="178" y2="418" />
    <line x1="194" y1="34" x2="194" y2="82" />
    <line x1="194" y1="130" x2="194" y2="162" />
    <line x1="194" y1="194" x2="194" y2="210" />
    <line x1="194" y1="226" x2="194" y2="242" />
    <line x1="194" y1="274" x2="194" y2="306" />
    <line x1="194" y1="322" x2="194" y2="402" />
    <line x1="194" y1="418" x2="194" y2="450" />
    <line x1="210" y1="50" x2="210" y2="66" />
    <line x1="210" y1="98" x2="210" y2="194" />
    <line x1="210" y1="210" x2="210" y2="258" />
    <line x1="210" y1="274" x2="210" y2="290" />
    <line x1="210" y1="306" x2="210" y2="322" />
    <line x1="210" y1="338" x2="210" y2="354" />
    <line x1="210" y1="402" x2="210" y2="434" />
    <line x1="210" y1="450" x2="210" y2="466" />
    <line x1="226" y1="18" x2="226" y2="50" />
    <line x1="226" y1="82" x2="226" y2="98" />
    <line x1="226" y1="130" x2="226" y2="178" />
    <line x1="226" y1="194" x2="226" y2="210" />
    <line x1="226" y1="242" x2="226" y2="274" />
    <line x1="226" y1="290" x2="226" y2="306" />
    <line x1="226" y1="322" x2="226" y2="338" />
    <line x1="226" y1="354" x2="226" y2="450" />
    <line x1="226" y1="466" x2="226" y2="482" />
    <line x1="242" y1="18" x2="242" y2="66" />
    <line x1="242" y1="98" x2="242" y2="114" />
    <line x1="242" y1="162" x2="242" y2="178" />
    <line x1="242" y1="210" x2="242" y2="226" />
    <line x1="242" y1="242" x2="242" y2="258" />
    <line x1="242" y1="274" x2="242" y2="322" />
    <line x1="242" y1="338" x2="242" y2="370" />
    <line x1="242" y1="386" x2="242" y2="402" />
    <line x1="242" y1="434" x2="242" y2="450" />
    <line x1="242" y1="466" x2="242" y2="482" />
    <line x1="258" y1="66" x2="258" y2="82" />
    <line x1="258" y1="114" x2="258" y2="130" />
    <line x1="258" y1="146" x2="258" y2="162" />
    <line x1="258" y1="178" x2="258" y2="194" />
    <line x1="258" y1="210" x2="258" y2="242" />
    <line x1="258" y1="258" x2="258" y2="290" />
    <line x1="258" y1="306" x2="258" y2="322" />
    <line x1="258" y1="370" x2="258" y2="386" />
    <line x1="258" y1="402" x2="258" y2="418" />
    <line x1="258" y1="434" x2="258" y2="466" />
    <line x1="274" y1="34" x2="274" y2="66" />
    <line x1="274" y1="82" x2="274" y2="98" />
    <line x1="274" y1="130" x2="274" y2="146" />
    <line x1="274" y1="210" x2="274" y2="226" />
    <line x1="274" y1="274" x2="274" y2="370" />
    <line x1="274" y1="402" x2="274" y2="434" />
    <line x1="290" y1="2" x2="290" y2="18" />
    <line x1="290" y1="66" x2="290" y2="82" />
    <line x1="290" y1="98" x2="290" y2="194" />
    <line x1="290" y1="274" x2="290" y2="306" />
    <line x1="290" y1="354" x2="290" y2="370" />
    <line x1="290" y1="402" x2="290" y2="466" />
    <line x1="306" y1="18" x2="306" y2="34" />
    <line x1="306" y1="66" x2="306" y2="98" />
    <line x1="306" y1="114" x2="306" y2="178" />
    <line x1="306" y1="226" x2="306" y2="242" />
    <line x1="306" y1="290" x2="306" y2="306" />
    <line x1="306" y1="386" x2="306" y2="402" />
    <line x1="306" y1="466" x2="306" y2="482" />
    <line x1="322" y1="2" x2="322" y2="18" />
    <line x1="322" y1="34" x2="322" y2="50" />
    <line x1="322" y1="98" x2="322" y2="114" />
    <line x1="322" y1="162" x2="322" y2="194" />
    <line x1="322" y1="258" x2="322" y2="290" />
    <line x1="322" y1="322" x2="322" y2="338" />
    <line x1="322" y1="370" x2="322" y2="402" />
    <line x1="322" y1="434" x2="322" y2="466" />
    <line x1="338" y1="18" x2="338" y2="34" />
    <line x1="338" y1="50" x2="338" y2="66" />
    <line x1="338" y1="82" x2="338" y2="130" />
    <line x1="338" y1="146" x2="338" y2="178" />
    <line x1="338" y1="242" x2="338" y2="258" />
    <line x1="338" y1="274" x2="338" y2="290" />
    <line x1="338" y1="306" x2="338" y2="322" />
    <line x1="338" y1="338" x2="338" y2="370" />
    <line x1="338" y1="386" x2="338" y2="434" />
    <line x1="338" y1="450" x2="338" y2="466" />
    <line x1="354" y1="18" x2="354" y2="66" />
    <line x1="354" y1="178" x2="354" y2="274" />
    <line x1="354" y1="290" x2="354" y2="306" />
    <line x1="354" y1="322" x2="354" y2="338" />
    <line x1="354" y1="354" x2="354" y2="386" />
    <line x1="354" y1="418" x2="354" y2="434" />
    <line x1="370" y1="34" x2="370" y2="50" />
    <line x1="370" y1="66" x2="370" y2="114" />
    <line x1="370" y1="130" x2="370" y2="146" />
    <line x1="370" y1="210" x2="370" y2="258" />
    <line x1="370" y1="306" x2="370" y2="322" />
    <line x1="370" y1="370" x2="370" y2="466" />
    <line x1="386" y1="2" x2="386" y2="18" />
    <line x1="386" y1="34" x2="386" y2="50" />
    <line x1="386" y1="82" x2="386" y2="98" />
    <line x1="386" y1="114" x2="386" y2="130" />
    <line x1="386" y1="146" x2="386" y2="194" />
    <line x1="386" y1="210" x2="386" y2="226" />
    <line x1="386" y1="274" x2="386" y2="290" />
    <line x1="386" y1="338" x2="386" y2="354" />
    <line x1="386" y1="402" x2="386" y2="418" />
    <line x1="386" y1="450" x2="386" y2="482" />
    <line x1="402" y1="18" x2="402" y2="34" />
    <line x1="402" y1="50" x2="402" y2="66" />
    <line x1="402" y1="98" x2="402" y2="114" />
    <line x1="402" y1="130" x2="402" y2="146" />
    <line x1="402" y1="178" x2="402" y2="210" />
    <line x1="402" y1="226" x2="402" y2="258" />
    <line x1="402" y1="274" x2="402" y2="306" />
    <line x1="402" y1="354" x2="402" y2="402" />
    <line x1="402" y1="434" x2="402" y2="466" />
    <line x1="418" y1="66" x2="418" y2="98" />
    <line x1="418" y1="146" x2="418" y2="162" />
    <line x1="418" y1="210" x2="418" y2="226" />
    <line x1="418" y1="258" x2="418" y2="274" />
    <line x1="418" y1="290" x2="418" y2="322" />
    <line x1="418" y1="338" x2="418" y2="434" />
    <line x1="418" y1="450" x2="418" y2="466" />
    <line x1="434" y1="18" x2="434" y2="114" />
    <line x1="434" y1="146" x2="434" y2="162" />
    <line x1="434" y1="194" x2="434" y2="210" />
    <line x1="434" y1="226" x2="434" y2="290" />
    <line x1="434" y1="306" x2="434" y2="338" />
    <line x1="434" y1="370" x2="434" y2="418" />
    <line x1="434" y1="466" x2="434" y2="482" />
    <line x1="450" y1="2" x2="450" y2="66" />
    <line x1="450" y1="82" x2="450" y2="98" />
    <line x1="450" y1="114" x2="450" y2="146" />
    <line x1="450" y1="178" x2="450" y2="210" />
    <line x1="450" y1="274" x2="450" y2="306" />
    <line x1="450" y1="338" x2="450" y2="354" />
    <line x1="450" y1="418" x2="450" y2="466" />
    <line x1="466" y1="18" x2="466" y2="50" />
    <line x1="466" y1="66" x2="466" y2="114" />
    <line x1="466" y1="146" x2="466" y2="226" />
    <line x1="466" y1="258" x2="466" y2="274" />
    <line x1="466" y1="354" x2="466" y2="370" />
    <line x1="466" y1="402" x2="466" y2="434" />
    <line x1="482" y1="2" x2="482" y2="482" />
  </g>
  <polyline fill="none" stroke="#ff0000" stroke-width="2" stroke-linecap="square" stroke-linejoin="round" points="234,2 234,10 170,10 170,42 138,42 138,58 90,58 90,42 74,42 74,58 58,58 58,90 42,90 42,106 74,106 74,90 90,90 90,154 74,154 74,122 42,122 42,154 58,154 58,186 42,186 42,202 26,202 26,218 42,218 42,234 58,234 58,218 74,218 74,266 106,266 106,282 122,282 122,266 154,266 154,202 170,202 170,266 202,266 202,298 218,298 218,282 234,282 234,314 218,314 218,330 202,330 202,362 218,362 218,346 234,346 234,378 250,378 250,362 266,362 266,378 282,378 282,346 330,346 330,330 346,330 346,314 362,314 362,330 426,330 426,298 442,298 442,314 474,314 474,330 442,330 442,346 426,346 426,362 458,362 458,346 474,346 474,378 442,378 442,394 474,394 474,442 458,442 458,458 474,458 474,474 442,474 442,442 410,442 410,426 378,426 378,394 394,394 394,410 410,410 410,346 394,346 394,362 362,362 362,394 346,394 346,410 362,410 362,442 330,442 330,426 298,426 298,442 314,442 314,458 298,458 298,474 250,474 250,482" />
</svg>
